<svg width="1073" height="579" viewBox="0 0 1073 579" fill="none" xmlns="http://www.w3.org/2000/svg">
<path d="M9.52148 267V240.926H16.6992C22.8516 240.926 26.5625 239.412 27.832 236.385C29.1992 233.26 29.8828 229.402 29.8828 224.812C29.8828 224.52 29.8828 222.322 29.8828 218.221C29.8828 214.021 29.8828 208.699 29.8828 202.254C29.8828 195.711 29.8828 188.582 29.8828 180.867C29.8828 173.055 29.834 165.34 29.7363 157.723C29.7363 150.008 29.7363 142.977 29.7363 136.629C29.7363 130.184 29.7363 125.057 29.7363 121.248C29.7363 117.342 29.7363 115.389 29.7363 115.389C29.7363 111.385 28.9062 108.064 27.2461 105.428C25.6836 102.791 22.168 101.424 16.6992 101.326C16.1133 101.326 14.9414 101.326 13.1836 101.326C11.5234 101.326 10.3027 101.326 9.52148 101.326V75.3984H91.5527C133.154 75.3984 164.16 83.3086 184.57 99.1289C204.98 114.852 215.186 138.533 215.186 170.174C215.186 194.49 210.205 213.729 200.244 227.889C190.381 241.951 176.416 252.01 158.35 258.064C140.283 264.021 119.092 267 94.7754 267H9.52148ZM77.7832 238.582H98.877C120.361 238.582 136.426 233.162 147.07 222.322C157.812 211.385 163.184 193.807 163.184 169.588C163.184 146.736 157.861 130.086 147.217 119.637C136.67 109.09 120.508 103.816 98.7305 103.816H77.7832V238.582ZM241.992 267V240.926H252.832C257.91 240.926 260.938 239.266 261.914 235.945C262.988 232.625 263.525 228.768 263.525 224.373V118.904C263.525 114.51 263.086 110.457 262.207 106.746C261.426 103.035 258.301 101.18 252.832 101.18H242.578V75.3984H409.424V128.719H380.859V122.713C380.859 116.463 379.98 112.068 378.223 109.529C376.562 106.893 374.219 105.33 371.191 104.842C368.164 104.354 364.551 104.109 360.352 104.109H311.279V157.283H340.137C343.066 157.283 345.41 157.039 347.168 156.551C348.926 156.062 350.342 154.842 351.416 152.889C352.49 150.936 353.369 147.811 354.053 143.514H366.504V195.369H353.906C352.832 189.021 351.318 185.164 349.365 183.797C347.51 182.332 344.434 181.6 340.137 181.6H311.279V238.582H362.402C369.629 238.582 374.609 237.264 377.344 234.627C380.176 231.99 381.641 225.496 381.738 215.145C381.738 214.754 381.738 213.973 381.738 212.801C381.738 211.629 381.738 210.848 381.738 210.457H410.01V267H241.992ZM522.363 270.809C512.598 270.809 503.076 269.197 493.799 265.975C484.619 262.752 477.1 258.309 471.24 252.645V267C467.725 267 463.574 267 458.789 267C454.004 267 449.707 267 445.898 267C442.188 267 439.941 267 439.16 267V207.527H467.285C467.578 208.797 467.871 210.018 468.164 211.189C468.457 212.361 468.75 213.484 469.043 214.559C470.996 224.422 475 232.088 481.055 237.557C487.207 242.928 496.777 245.613 509.766 245.613C519.727 245.613 527.734 243.367 533.789 238.875C539.844 234.285 542.871 227.84 542.871 219.539C542.871 213.973 541.211 209.285 537.891 205.477C534.57 201.668 530.078 198.396 524.414 195.662C518.848 192.928 512.598 190.34 505.664 187.898C498.828 185.457 491.846 182.771 484.717 179.842C469.287 173.494 457.812 166.023 450.293 157.43C442.871 148.836 439.16 138.436 439.16 126.229C439.16 115.975 441.699 106.746 446.777 98.543C451.855 90.2422 459.18 83.6992 468.75 78.9141C478.32 74.1289 489.844 71.7363 503.32 71.7363C512.012 71.7363 520.654 72.8105 529.248 74.959C537.939 77.1074 545.996 81.1602 553.418 87.1172C553.418 84.4805 553.369 81.8438 553.271 79.207C553.271 76.5703 553.271 75.252 553.271 75.252C554.053 75.252 556.006 75.252 559.131 75.252C562.354 75.252 565.967 75.3008 569.971 75.3984C573.975 75.3984 577.539 75.3984 580.664 75.3984V128.865H552.539C552.148 127.596 551.807 126.375 551.514 125.203C551.318 124.031 551.074 122.859 550.781 121.688C549.121 112.996 545.41 106.355 539.648 101.766C533.887 97.0781 525.146 94.7344 513.428 94.7344C503.955 94.7344 496.387 96.9805 490.723 101.473C485.156 105.867 482.373 111.678 482.373 118.904C482.373 124.471 484.033 129.109 487.354 132.82C490.771 136.434 495.41 139.656 501.27 142.488C507.227 145.223 514.062 147.957 521.777 150.691C529.492 153.426 537.646 156.648 546.24 160.359C553.76 163.484 560.645 167.391 566.895 172.078C573.242 176.668 578.32 182.381 582.129 189.217C585.938 195.955 587.842 204.158 587.842 213.826C587.842 224.08 585.205 233.553 579.932 242.244C574.658 250.838 567.139 257.771 557.373 263.045C547.607 268.221 535.938 270.809 522.363 270.809ZM717.92 270.809C694.189 270.809 674.854 266.365 659.912 257.479C644.971 248.592 633.984 236.629 626.953 221.59C620.02 206.551 616.553 189.754 616.553 171.199C616.553 151.766 620.41 134.578 628.125 119.637C635.938 104.695 647.021 92.9766 661.377 84.4805C675.83 75.9844 693.066 71.7363 713.086 71.7363C722.168 71.7363 731.396 73.25 740.771 76.2773C750.146 79.207 757.422 83.2598 762.598 88.4355L763.33 75.8379H795.85V135.896H765.82C765.137 124.861 761.133 116.17 753.809 109.822C746.484 103.377 736.035 100.154 722.461 100.154C711.426 100.154 701.953 102.84 694.043 108.211C686.133 113.484 680.029 121.395 675.732 131.941C671.533 142.391 669.434 155.33 669.434 170.76C669.434 185.799 671.533 198.689 675.732 209.432C680.029 220.076 686.182 228.23 694.189 233.895C702.197 239.559 711.768 242.391 722.9 242.391C737.842 242.391 749.072 239.07 756.592 232.43C764.209 225.789 768.408 214.266 769.189 197.859L799.072 204.305L796.875 248.836C785.449 256.551 773.193 262.166 760.107 265.682C747.021 269.1 732.959 270.809 717.92 270.809ZM928.418 270.809C906.836 270.809 888.477 266.414 873.34 257.625C858.203 248.836 846.68 236.922 838.77 221.883C830.957 206.844 827.051 189.9 827.051 171.053C827.051 152.4 830.908 135.604 838.623 120.662C846.436 105.623 857.812 93.709 872.754 84.9199C887.793 76.1309 906.201 71.7363 927.979 71.7363C949.463 71.7363 967.676 76.1309 982.617 84.9199C997.559 93.709 1008.94 105.623 1016.75 120.662C1024.56 135.604 1028.47 152.4 1028.47 171.053C1028.47 189.607 1024.56 206.453 1016.75 221.59C1009.03 236.629 997.705 248.592 982.764 257.479C967.92 266.365 949.805 270.809 928.418 270.809ZM927.832 242.391C944.238 242.391 956.25 236.092 963.867 223.494C971.582 210.799 975.439 193.27 975.439 170.906C975.439 148.055 971.533 130.574 963.721 118.465C955.908 106.258 943.945 100.154 927.832 100.154C911.035 100.154 898.877 106.453 891.357 119.051C883.936 131.551 880.225 148.787 880.225 170.76C880.225 193.514 884.131 211.141 891.943 223.641C899.756 236.141 911.719 242.391 927.832 242.391Z" fill="#008000"/>
<path d="M278.979 457V449.578H283.275C284.903 449.578 285.88 449.074 286.205 448.064C286.531 447.055 286.693 445.9 286.693 444.598V406.268C286.693 404.77 286.563 403.484 286.303 402.41C286.042 401.303 285.033 400.75 283.275 400.75H279.223V393.475H333.715V410.613H325.561V408.514C325.561 406.202 325.316 404.575 324.828 403.631C324.372 402.687 323.721 402.133 322.875 401.971C322.029 401.775 321.003 401.678 319.799 401.678H300.268V421.014H312.279C313.093 421.014 313.728 420.949 314.184 420.818C314.672 420.656 315.062 420.232 315.355 419.549C315.681 418.865 315.925 417.742 316.088 416.18H320.189V432.977H316.088C315.762 430.665 315.323 429.282 314.77 428.826C314.249 428.338 313.386 428.094 312.182 428.094H300.268V448.846H320.434C322.484 448.846 323.884 448.374 324.633 447.43C325.382 446.453 325.772 444.24 325.805 440.789C325.805 440.561 325.805 440.236 325.805 439.812C325.805 439.389 325.805 439.048 325.805 438.787H333.91V457H278.979ZM370.385 458.221C366.771 458.221 363.402 457.667 360.277 456.561C357.152 455.421 354.662 453.875 352.807 451.922V457C351.765 457 350.577 457 349.242 457C347.94 457 346.736 457 345.629 457C344.555 457 343.855 457 343.529 457V437.127H351.732C351.798 437.485 351.863 437.843 351.928 438.201C351.993 438.527 352.058 438.852 352.123 439.178C352.644 442.824 354.011 445.672 356.225 447.723C358.438 449.773 361.921 450.799 366.674 450.799C370.352 450.799 373.314 449.936 375.561 448.211C377.807 446.486 378.93 444.109 378.93 441.082C378.93 439.064 378.344 437.387 377.172 436.053C376.033 434.718 374.486 433.579 372.533 432.635C370.58 431.691 368.399 430.812 365.99 429.998C363.581 429.152 361.124 428.224 358.617 427.215C353.572 425.197 349.812 422.82 347.338 420.086C344.864 417.352 343.627 413.934 343.627 409.832C343.627 406.544 344.457 403.566 346.117 400.896C347.777 398.227 350.17 396.111 353.295 394.549C356.42 392.986 360.18 392.205 364.574 392.205C367.569 392.205 370.482 392.563 373.314 393.279C376.146 393.995 378.816 395.395 381.322 397.479C381.322 396.697 381.306 395.835 381.273 394.891C381.273 393.947 381.273 393.475 381.273 393.475C381.632 393.475 382.266 393.475 383.178 393.475C384.122 393.475 385.163 393.491 386.303 393.523C387.442 393.523 388.467 393.523 389.379 393.523V411.004H381.225C381.127 410.581 381.046 410.19 380.98 409.832C380.915 409.474 380.85 409.1 380.785 408.709C380.395 405.649 379.092 403.273 376.879 401.58C374.665 399.887 371.492 399.041 367.357 399.041C363.874 399.041 361.124 399.855 359.105 401.482C357.087 403.11 356.078 405.226 356.078 407.83C356.078 409.848 356.664 411.508 357.836 412.811C359.04 414.113 360.668 415.236 362.719 416.18C364.77 417.124 367.113 418.051 369.75 418.963C372.387 419.842 375.154 420.883 378.051 422.088C380.622 423.13 382.95 424.415 385.033 425.945C387.117 427.443 388.777 429.298 390.014 431.512C391.251 433.693 391.869 436.362 391.869 439.52C391.869 442.938 390.99 446.062 389.232 448.895C387.475 451.727 384.984 453.989 381.762 455.682C378.572 457.374 374.779 458.221 370.385 458.221ZM413.5 457V449.578H416.234C417.992 449.578 419.229 449.35 419.945 448.895C420.661 448.406 421.085 447.804 421.215 447.088C421.345 446.339 421.41 445.574 421.41 444.793V401.678H412.67C410.652 401.678 409.171 401.792 408.227 402.02C407.315 402.215 406.713 402.573 406.42 403.094C406.16 403.582 406.029 404.266 406.029 405.145C406.029 405.763 406.029 406.626 406.029 407.732C406.029 408.839 406.029 409.979 406.029 411.15C406.062 412.322 406.078 413.299 406.078 414.08H399.242V393.426C399.242 393.426 400.089 393.442 401.781 393.475C403.474 393.475 405.541 393.475 407.982 393.475C410.456 393.475 412.882 393.491 415.258 393.523C417.634 393.523 419.522 393.523 420.922 393.523H439.525C441.283 393.523 443.188 393.523 445.238 393.523C447.322 393.491 449.389 393.475 451.439 393.475C453.49 393.442 455.346 393.426 457.006 393.426V414.08H450.121V406.365C450.121 405.031 449.975 404.038 449.682 403.387C449.421 402.703 448.738 402.247 447.631 402.02C446.557 401.792 444.799 401.678 442.357 401.678H434.984V446.16C434.984 446.714 435.066 447.251 435.229 447.771C435.424 448.292 435.88 448.732 436.596 449.09C437.344 449.415 438.533 449.578 440.16 449.578H442.895V457C440.648 457 438.467 457 436.352 457C434.236 456.967 431.632 456.935 428.539 456.902C427.725 456.902 426.684 456.919 425.414 456.951C424.177 456.951 422.842 456.951 421.41 456.951C419.978 456.951 418.562 456.967 417.162 457C415.795 457 414.574 457 413.5 457ZM464.086 457.537C461.677 457.537 459.854 457.016 458.617 455.975C457.38 454.933 456.762 453.582 456.762 451.922C456.762 450.424 457.396 449.122 458.666 448.016C459.936 446.909 461.742 446.355 464.086 446.355C466.397 446.355 468.188 446.893 469.457 447.967C470.759 449.041 471.41 450.359 471.41 451.922C471.41 453.452 470.792 454.77 469.555 455.877C468.35 456.984 466.527 457.537 464.086 457.537ZM509.936 457V449.822H514.623C517.292 449.822 518.871 449.448 519.359 448.699C519.848 447.951 520.092 446.827 520.092 445.33V404.607C518.171 405.617 516.186 406.495 514.135 407.244C512.084 407.993 510.229 408.53 508.568 408.855V400.311C511.563 399.79 514.346 398.927 516.918 397.723C519.49 396.486 521.785 395.037 523.803 393.377L531.713 393.963V445.428C531.713 446.6 531.811 447.511 532.006 448.162C532.201 448.781 532.738 449.22 533.617 449.48C534.529 449.708 536.026 449.822 538.109 449.822H541.43V457C539.118 457 536.824 457 534.545 457C532.299 456.967 529.597 456.935 526.439 456.902C522.761 456.902 519.75 456.919 517.406 456.951C515.095 456.984 512.605 457 509.936 457ZM582.592 458.172C578.458 458.172 574.714 457.667 571.361 456.658C568.008 455.617 565.128 454.07 562.719 452.02V442.547L571.166 442.156C571.459 445.477 572.419 447.853 574.047 449.285C575.674 450.717 578.262 451.434 581.811 451.434C587.214 451.434 591.023 449.448 593.236 445.477C595.482 441.505 596.622 435.711 596.654 428.094C594.669 430.372 592.276 432.098 589.477 433.27C586.677 434.441 583.666 435.027 580.443 435.027C576.244 435.027 572.582 434.148 569.457 432.391C566.365 430.633 563.956 428.191 562.23 425.066C560.538 421.909 559.691 418.263 559.691 414.129C559.691 409.669 560.668 405.796 562.621 402.508C564.574 399.22 567.325 396.681 570.873 394.891C574.421 393.1 578.555 392.205 583.275 392.205C588.354 392.205 592.748 393.344 596.459 395.623C600.202 397.869 603.083 401.352 605.102 406.072C607.152 410.792 608.178 416.814 608.178 424.139C608.178 430.812 607.283 436.72 605.492 441.863C603.734 446.974 600.967 450.978 597.191 453.875C593.448 456.74 588.581 458.172 582.592 458.172ZM583.178 427.605C585.912 427.605 588.354 427.003 590.502 425.799C592.65 424.594 594.424 422.869 595.824 420.623C596.085 418.54 596.182 416.342 596.117 414.031C595.889 409.767 594.685 406.398 592.504 403.924C590.323 401.417 587.279 400.164 583.373 400.164C579.564 400.164 576.586 401.352 574.438 403.729C572.289 406.105 571.215 409.409 571.215 413.641C571.215 417.71 572.24 421.062 574.291 423.699C576.342 426.303 579.304 427.605 583.178 427.605ZM631.762 457C632.641 450.913 634.236 444.63 636.547 438.152C638.891 431.642 641.82 425.229 645.336 418.914C648.884 412.599 652.872 406.674 657.299 401.141H638.012C635.701 401.141 633.959 401.238 632.787 401.434C631.615 401.629 630.834 402.036 630.443 402.654C630.053 403.24 629.857 404.152 629.857 405.389V411.639H622.631V393.426H667.016V402.117C662.426 408.953 658.585 415.675 655.492 422.283C652.432 428.891 650.023 435.158 648.266 441.082C646.54 446.974 645.368 452.28 644.75 457H631.762ZM698.119 457V450.359H701.684C704.125 450.359 705.736 450.148 706.518 449.725C707.331 449.301 707.738 448.439 707.738 447.137V437.664H679.564C679.337 436.167 679.092 434.686 678.832 433.221C678.604 431.756 678.327 430.307 678.002 428.875L705.883 393.328H718.627V430.633H728.344V437.664H718.627V446.697C718.627 448.195 718.887 449.188 719.408 449.676C719.929 450.132 721.378 450.359 723.754 450.359H726.488V457C725.609 457 724.258 457 722.436 457C720.613 456.967 718.676 456.951 716.625 456.951C714.574 456.919 712.719 456.902 711.059 456.902C708.129 456.902 705.753 456.919 703.93 456.951C702.107 456.984 700.17 457 698.119 457ZM685.473 430.779H707.836V401.189L685.473 430.779Z" fill="#008000"/>
</svg>
