<svg width="1200" height="1200" viewBox="0 0 1200 1200" fill="none" xmlns="http://www.w3.org/2000/svg">
<rect width="1200" height="1200" fill="#008000" fill-opacity="0.2"/>
<path d="M75.5215 683V656.926H82.6992C88.8516 656.926 92.5625 655.412 93.832 652.385C95.1992 649.26 95.8828 645.402 95.8828 640.812C95.8828 640.52 95.8828 638.322 95.8828 634.221C95.8828 630.021 95.8828 624.699 95.8828 618.254C95.8828 611.711 95.8828 604.582 95.8828 596.867C95.8828 589.055 95.834 581.34 95.7363 573.723C95.7363 566.008 95.7363 558.977 95.7363 552.629C95.7363 546.184 95.7363 541.057 95.7363 537.248C95.7363 533.342 95.7363 531.389 95.7363 531.389C95.7363 527.385 94.9062 524.064 93.2461 521.428C91.6836 518.791 88.168 517.424 82.6992 517.326C82.1133 517.326 80.9414 517.326 79.1836 517.326C77.5234 517.326 76.3027 517.326 75.5215 517.326V491.398H157.553C199.154 491.398 230.16 499.309 250.57 515.129C270.98 530.852 281.186 554.533 281.186 586.174C281.186 610.49 276.205 629.729 266.244 643.889C256.381 657.951 242.416 668.01 224.35 674.064C206.283 680.021 185.092 683 160.775 683H75.5215ZM143.783 654.582H164.877C186.361 654.582 202.426 649.162 213.07 638.322C223.812 627.385 229.184 609.807 229.184 585.588C229.184 562.736 223.861 546.086 213.217 535.637C202.67 525.09 186.508 519.816 164.73 519.816H143.783V654.582ZM307.992 683V656.926H318.832C323.91 656.926 326.938 655.266 327.914 651.945C328.988 648.625 329.525 644.768 329.525 640.373V534.904C329.525 530.51 329.086 526.457 328.207 522.746C327.426 519.035 324.301 517.18 318.832 517.18H308.578V491.398H475.424V544.719H446.859V538.713C446.859 532.463 445.98 528.068 444.223 525.529C442.562 522.893 440.219 521.33 437.191 520.842C434.164 520.354 430.551 520.109 426.352 520.109H377.279V573.283H406.137C409.066 573.283 411.41 573.039 413.168 572.551C414.926 572.062 416.342 570.842 417.416 568.889C418.49 566.936 419.369 563.811 420.053 559.514H432.504V611.369H419.906C418.832 605.021 417.318 601.164 415.365 599.797C413.51 598.332 410.434 597.6 406.137 597.6H377.279V654.582H428.402C435.629 654.582 440.609 653.264 443.344 650.627C446.176 647.99 447.641 641.496 447.738 631.145C447.738 630.754 447.738 629.973 447.738 628.801C447.738 627.629 447.738 626.848 447.738 626.457H476.01V683H307.992ZM588.363 686.809C578.598 686.809 569.076 685.197 559.799 681.975C550.619 678.752 543.1 674.309 537.24 668.645V683C533.725 683 529.574 683 524.789 683C520.004 683 515.707 683 511.898 683C508.188 683 505.941 683 505.16 683V623.527H533.285C533.578 624.797 533.871 626.018 534.164 627.189C534.457 628.361 534.75 629.484 535.043 630.559C536.996 640.422 541 648.088 547.055 653.557C553.207 658.928 562.777 661.613 575.766 661.613C585.727 661.613 593.734 659.367 599.789 654.875C605.844 650.285 608.871 643.84 608.871 635.539C608.871 629.973 607.211 625.285 603.891 621.477C600.57 617.668 596.078 614.396 590.414 611.662C584.848 608.928 578.598 606.34 571.664 603.898C564.828 601.457 557.846 598.771 550.717 595.842C535.287 589.494 523.812 582.023 516.293 573.43C508.871 564.836 505.16 554.436 505.16 542.229C505.16 531.975 507.699 522.746 512.777 514.543C517.855 506.242 525.18 499.699 534.75 494.914C544.32 490.129 555.844 487.736 569.32 487.736C578.012 487.736 586.654 488.811 595.248 490.959C603.939 493.107 611.996 497.16 619.418 503.117C619.418 500.48 619.369 497.844 619.271 495.207C619.271 492.57 619.271 491.252 619.271 491.252C620.053 491.252 622.006 491.252 625.131 491.252C628.354 491.252 631.967 491.301 635.971 491.398C639.975 491.398 643.539 491.398 646.664 491.398V544.865H618.539C618.148 543.596 617.807 542.375 617.514 541.203C617.318 540.031 617.074 538.859 616.781 537.688C615.121 528.996 611.41 522.355 605.648 517.766C599.887 513.078 591.146 510.734 579.428 510.734C569.955 510.734 562.387 512.98 556.723 517.473C551.156 521.867 548.373 527.678 548.373 534.904C548.373 540.471 550.033 545.109 553.354 548.82C556.771 552.434 561.41 555.656 567.27 558.488C573.227 561.223 580.062 563.957 587.777 566.691C595.492 569.426 603.646 572.648 612.24 576.359C619.76 579.484 626.645 583.391 632.895 588.078C639.242 592.668 644.32 598.381 648.129 605.217C651.938 611.955 653.842 620.158 653.842 629.826C653.842 640.08 651.205 649.553 645.932 658.244C640.658 666.838 633.139 673.771 623.373 679.045C613.607 684.221 601.938 686.809 588.363 686.809ZM783.92 686.809C760.189 686.809 740.854 682.365 725.912 673.479C710.971 664.592 699.984 652.629 692.953 637.59C686.02 622.551 682.553 605.754 682.553 587.199C682.553 567.766 686.41 550.578 694.125 535.637C701.938 520.695 713.021 508.977 727.377 500.48C741.83 491.984 759.066 487.736 779.086 487.736C788.168 487.736 797.396 489.25 806.771 492.277C816.146 495.207 823.422 499.26 828.598 504.436L829.33 491.838H861.85V551.896H831.82C831.137 540.861 827.133 532.17 819.809 525.822C812.484 519.377 802.035 516.154 788.461 516.154C777.426 516.154 767.953 518.84 760.043 524.211C752.133 529.484 746.029 537.395 741.732 547.941C737.533 558.391 735.434 571.33 735.434 586.76C735.434 601.799 737.533 614.689 741.732 625.432C746.029 636.076 752.182 644.23 760.189 649.895C768.197 655.559 777.768 658.391 788.9 658.391C803.842 658.391 815.072 655.07 822.592 648.43C830.209 641.789 834.408 630.266 835.189 613.859L865.072 620.305L862.875 664.836C851.449 672.551 839.193 678.166 826.107 681.682C813.021 685.1 798.959 686.809 783.92 686.809ZM994.418 686.809C972.836 686.809 954.477 682.414 939.34 673.625C924.203 664.836 912.68 652.922 904.77 637.883C896.957 622.844 893.051 605.9 893.051 587.053C893.051 568.4 896.908 551.604 904.623 536.662C912.436 521.623 923.812 509.709 938.754 500.92C953.793 492.131 972.201 487.736 993.979 487.736C1015.46 487.736 1033.68 492.131 1048.62 500.92C1063.56 509.709 1074.94 521.623 1082.75 536.662C1090.56 551.604 1094.47 568.4 1094.47 587.053C1094.47 605.607 1090.56 622.453 1082.75 637.59C1075.03 652.629 1063.71 664.592 1048.76 673.479C1033.92 682.365 1015.8 686.809 994.418 686.809ZM993.832 658.391C1010.24 658.391 1022.25 652.092 1029.87 639.494C1037.58 626.799 1041.44 609.27 1041.44 586.906C1041.44 564.055 1037.53 546.574 1029.72 534.465C1021.91 522.258 1009.95 516.154 993.832 516.154C977.035 516.154 964.877 522.453 957.357 535.051C949.936 547.551 946.225 564.787 946.225 586.76C946.225 609.514 950.131 627.141 957.943 639.641C965.756 652.141 977.719 658.391 993.832 658.391Z" fill="#008000"/>
<path d="M344.979 873V865.578H349.275C350.903 865.578 351.88 865.074 352.205 864.064C352.531 863.055 352.693 861.9 352.693 860.598V822.268C352.693 820.77 352.563 819.484 352.303 818.41C352.042 817.303 351.033 816.75 349.275 816.75H345.223V809.475H399.715V826.613H391.561V824.514C391.561 822.202 391.316 820.575 390.828 819.631C390.372 818.687 389.721 818.133 388.875 817.971C388.029 817.775 387.003 817.678 385.799 817.678H366.268V837.014H378.279C379.093 837.014 379.728 836.949 380.184 836.818C380.672 836.656 381.062 836.232 381.355 835.549C381.681 834.865 381.925 833.742 382.088 832.18H386.189V848.977H382.088C381.762 846.665 381.323 845.282 380.77 844.826C380.249 844.338 379.386 844.094 378.182 844.094H366.268V864.846H386.434C388.484 864.846 389.884 864.374 390.633 863.43C391.382 862.453 391.772 860.24 391.805 856.789C391.805 856.561 391.805 856.236 391.805 855.812C391.805 855.389 391.805 855.048 391.805 854.787H399.91V873H344.979ZM436.385 874.221C432.771 874.221 429.402 873.667 426.277 872.561C423.152 871.421 420.662 869.875 418.807 867.922V873C417.765 873 416.577 873 415.242 873C413.94 873 412.736 873 411.629 873C410.555 873 409.855 873 409.529 873V853.127H417.732C417.798 853.485 417.863 853.843 417.928 854.201C417.993 854.527 418.058 854.852 418.123 855.178C418.644 858.824 420.011 861.672 422.225 863.723C424.438 865.773 427.921 866.799 432.674 866.799C436.352 866.799 439.314 865.936 441.561 864.211C443.807 862.486 444.93 860.109 444.93 857.082C444.93 855.064 444.344 853.387 443.172 852.053C442.033 850.718 440.486 849.579 438.533 848.635C436.58 847.691 434.399 846.812 431.99 845.998C429.581 845.152 427.124 844.224 424.617 843.215C419.572 841.197 415.812 838.82 413.338 836.086C410.864 833.352 409.627 829.934 409.627 825.832C409.627 822.544 410.457 819.566 412.117 816.896C413.777 814.227 416.17 812.111 419.295 810.549C422.42 808.986 426.18 808.205 430.574 808.205C433.569 808.205 436.482 808.563 439.314 809.279C442.146 809.995 444.816 811.395 447.322 813.479C447.322 812.697 447.306 811.835 447.273 810.891C447.273 809.947 447.273 809.475 447.273 809.475C447.632 809.475 448.266 809.475 449.178 809.475C450.122 809.475 451.163 809.491 452.303 809.523C453.442 809.523 454.467 809.523 455.379 809.523V827.004H447.225C447.127 826.581 447.046 826.19 446.98 825.832C446.915 825.474 446.85 825.1 446.785 824.709C446.395 821.649 445.092 819.273 442.879 817.58C440.665 815.887 437.492 815.041 433.357 815.041C429.874 815.041 427.124 815.855 425.105 817.482C423.087 819.11 422.078 821.226 422.078 823.83C422.078 825.848 422.664 827.508 423.836 828.811C425.04 830.113 426.668 831.236 428.719 832.18C430.77 833.124 433.113 834.051 435.75 834.963C438.387 835.842 441.154 836.883 444.051 838.088C446.622 839.13 448.95 840.415 451.033 841.945C453.117 843.443 454.777 845.298 456.014 847.512C457.251 849.693 457.869 852.362 457.869 855.52C457.869 858.938 456.99 862.062 455.232 864.895C453.475 867.727 450.984 869.989 447.762 871.682C444.572 873.374 440.779 874.221 436.385 874.221ZM479.5 873V865.578H482.234C483.992 865.578 485.229 865.35 485.945 864.895C486.661 864.406 487.085 863.804 487.215 863.088C487.345 862.339 487.41 861.574 487.41 860.793V817.678H478.67C476.652 817.678 475.171 817.792 474.227 818.02C473.315 818.215 472.713 818.573 472.42 819.094C472.16 819.582 472.029 820.266 472.029 821.145C472.029 821.763 472.029 822.626 472.029 823.732C472.029 824.839 472.029 825.979 472.029 827.15C472.062 828.322 472.078 829.299 472.078 830.08H465.242V809.426C465.242 809.426 466.089 809.442 467.781 809.475C469.474 809.475 471.541 809.475 473.982 809.475C476.456 809.475 478.882 809.491 481.258 809.523C483.634 809.523 485.522 809.523 486.922 809.523H505.525C507.283 809.523 509.188 809.523 511.238 809.523C513.322 809.491 515.389 809.475 517.439 809.475C519.49 809.442 521.346 809.426 523.006 809.426V830.08H516.121V822.365C516.121 821.031 515.975 820.038 515.682 819.387C515.421 818.703 514.738 818.247 513.631 818.02C512.557 817.792 510.799 817.678 508.357 817.678H500.984V862.16C500.984 862.714 501.066 863.251 501.229 863.771C501.424 864.292 501.88 864.732 502.596 865.09C503.344 865.415 504.533 865.578 506.16 865.578H508.895V873C506.648 873 504.467 873 502.352 873C500.236 872.967 497.632 872.935 494.539 872.902C493.725 872.902 492.684 872.919 491.414 872.951C490.177 872.951 488.842 872.951 487.41 872.951C485.978 872.951 484.562 872.967 483.162 873C481.795 873 480.574 873 479.5 873ZM530.086 873.537C527.677 873.537 525.854 873.016 524.617 871.975C523.38 870.933 522.762 869.582 522.762 867.922C522.762 866.424 523.396 865.122 524.666 864.016C525.936 862.909 527.742 862.355 530.086 862.355C532.397 862.355 534.188 862.893 535.457 863.967C536.759 865.041 537.41 866.359 537.41 867.922C537.41 869.452 536.792 870.77 535.555 871.877C534.35 872.984 532.527 873.537 530.086 873.537ZM575.936 873V865.822H580.623C583.292 865.822 584.871 865.448 585.359 864.699C585.848 863.951 586.092 862.827 586.092 861.33V820.607C584.171 821.617 582.186 822.495 580.135 823.244C578.084 823.993 576.229 824.53 574.568 824.855V816.311C577.563 815.79 580.346 814.927 582.918 813.723C585.49 812.486 587.785 811.037 589.803 809.377L597.713 809.963V861.428C597.713 862.6 597.811 863.511 598.006 864.162C598.201 864.781 598.738 865.22 599.617 865.48C600.529 865.708 602.026 865.822 604.109 865.822H607.43V873C605.118 873 602.824 873 600.545 873C598.299 872.967 595.597 872.935 592.439 872.902C588.761 872.902 585.75 872.919 583.406 872.951C581.095 872.984 578.605 873 575.936 873ZM648.592 874.172C644.458 874.172 640.714 873.667 637.361 872.658C634.008 871.617 631.128 870.07 628.719 868.02V858.547L637.166 858.156C637.459 861.477 638.419 863.853 640.047 865.285C641.674 866.717 644.262 867.434 647.811 867.434C653.214 867.434 657.023 865.448 659.236 861.477C661.482 857.505 662.622 851.711 662.654 844.094C660.669 846.372 658.276 848.098 655.477 849.27C652.677 850.441 649.666 851.027 646.443 851.027C642.244 851.027 638.582 850.148 635.457 848.391C632.365 846.633 629.956 844.191 628.23 841.066C626.538 837.909 625.691 834.263 625.691 830.129C625.691 825.669 626.668 821.796 628.621 818.508C630.574 815.22 633.325 812.681 636.873 810.891C640.421 809.1 644.555 808.205 649.275 808.205C654.354 808.205 658.748 809.344 662.459 811.623C666.202 813.869 669.083 817.352 671.102 822.072C673.152 826.792 674.178 832.814 674.178 840.139C674.178 846.812 673.283 852.72 671.492 857.863C669.734 862.974 666.967 866.978 663.191 869.875C659.448 872.74 654.581 874.172 648.592 874.172ZM649.178 843.605C651.912 843.605 654.354 843.003 656.502 841.799C658.65 840.594 660.424 838.869 661.824 836.623C662.085 834.54 662.182 832.342 662.117 830.031C661.889 825.767 660.685 822.398 658.504 819.924C656.323 817.417 653.279 816.164 649.373 816.164C645.564 816.164 642.586 817.352 640.438 819.729C638.289 822.105 637.215 825.409 637.215 829.641C637.215 833.71 638.24 837.062 640.291 839.699C642.342 842.303 645.304 843.605 649.178 843.605ZM697.762 873C698.641 866.913 700.236 860.63 702.547 854.152C704.891 847.642 707.82 841.229 711.336 834.914C714.884 828.599 718.872 822.674 723.299 817.141H704.012C701.701 817.141 699.959 817.238 698.787 817.434C697.615 817.629 696.834 818.036 696.443 818.654C696.053 819.24 695.857 820.152 695.857 821.389V827.639H688.631V809.426H733.016V818.117C728.426 824.953 724.585 831.675 721.492 838.283C718.432 844.891 716.023 851.158 714.266 857.082C712.54 862.974 711.368 868.28 710.75 873H697.762ZM764.119 873V866.359H767.684C770.125 866.359 771.736 866.148 772.518 865.725C773.331 865.301 773.738 864.439 773.738 863.137V853.664H745.564C745.337 852.167 745.092 850.686 744.832 849.221C744.604 847.756 744.327 846.307 744.002 844.875L771.883 809.328H784.627V846.633H794.344V853.664H784.627V862.697C784.627 864.195 784.887 865.188 785.408 865.676C785.929 866.132 787.378 866.359 789.754 866.359H792.488V873C791.609 873 790.258 873 788.436 873C786.613 872.967 784.676 872.951 782.625 872.951C780.574 872.919 778.719 872.902 777.059 872.902C774.129 872.902 771.753 872.919 769.93 872.951C768.107 872.984 766.17 873 764.119 873ZM751.473 846.779H773.836V817.189L751.473 846.779Z" fill="#008000"/>
</svg>
